<svg version="1.1" id="Layer_1" xmlns="http://www.w3.org/2000/svg" xmlns:xlink="http://www.w3.org/1999/xlink" x="0px" y="0px"
     width="100%" viewBox="0 0 400 160" enable-background="new 0 0 400 160" xml:space="preserve">
    
    <path fill="#FFFFFF" opacity="1.000000" stroke="none" 
        d="M259.241547,71.490105 C272.597076,74.576294 279.419250,85.726906 276.008942,98.303726 C272.526337,111.147171 260.880310,115.823273 244.205185,110.881996 C242.531967,113.399330 243.509109,116.286690 243.291275,118.976929 C243.117142,121.127533 243.351440,123.313507 243.143661,125.458527 C242.876358,128.218216 241.574860,130.312836 238.442047,130.182190 C235.386703,130.054779 234.736588,127.791550 234.715881,125.262825 C234.670959,119.771500 234.678436,114.279724 234.674057,108.788116 C234.669556,103.130051 234.570602,97.469559 234.699677,91.814392 C234.996048,78.828476 245.958405,69.611786 259.241547,71.490105 M250.736954,80.808777 C249.889038,81.321533 248.978134,81.753815 248.203522,82.360184 C243.381958,86.134583 241.907425,91.375168 244.035583,96.986679 C245.906174,101.919052 250.538666,104.938026 256.080109,104.836037 C261.652313,104.733482 266.346527,101.102371 268.177399,95.478424 C269.681824,90.857239 267.497070,85.473129 262.903442,82.069847 C259.343018,79.432030 255.462494,79.758614 250.736954,80.808777 z"/>
    
    <path fill="#FFFFFF" opacity="1.000000" stroke="none" 
        d="M307.449860,103.258507 C300.900208,88.712402 307.173920,74.613480 321.218140,71.549202 C331.070801,69.399467 341.172913,74.750046 345.188843,84.245316 C349.039520,93.349823 345.736237,104.284767 337.457123,109.840210 C329.054688,115.478401 317.425995,114.302040 310.470856,107.066368 C309.438904,105.992798 308.583435,104.749626 307.449860,103.258507 M334.010498,101.571335 C339.530945,95.331520 339.767395,88.432579 334.634918,83.351379 C329.953339,78.716576 322.316467,78.394524 317.378937,82.623672 C312.189331,87.068733 311.507507,94.678909 315.814148,100.088425 C320.344513,105.778946 326.955109,106.524734 334.010498,101.571335 z"/>
    
    <path fill="#FFFFFF" opacity="1.000000" stroke="none" 
        d="M166.158447,109.323166 C158.140015,114.467026 150.154358,114.954918 142.311035,110.212158 C135.511871,106.100800 132.389343,99.736740 132.584595,91.723503 C132.811417,82.413727 138.949509,74.352119 147.912781,71.811852 C156.694244,69.323112 166.535980,73.111519 171.405167,80.854858 C176.367798,88.746758 175.517563,99.597610 169.367996,106.375069 C168.477127,107.356903 167.435471,108.201920 166.158447,109.323166 M155.956329,104.737564 C163.800827,102.356140 168.073303,95.604492 165.907806,89.011574 C163.481613,81.624992 156.332748,77.880951 149.336807,80.332947 C143.327576,82.439110 140.156387,88.353226 141.353500,95.221344 C142.377151,101.094223 147.697067,104.793930 155.956329,104.737564 z"/>
    
    <path fill="#FFFFFF" opacity="1.000000" stroke="none" 
        d="M190.884598,109.271652 C183.036728,102.839828 181.107925,94.895767 183.623489,85.739441 C185.832718,77.698105 191.573746,73.321930 199.424683,71.515991 C207.886322,69.569572 216.768250,73.573105 221.647369,81.344208 C225.961441,88.215347 225.338928,98.997398 220.264450,105.296806 C214.606262,112.320816 205.075500,115.255074 196.975159,112.331795 C194.963074,111.605675 193.103210,110.457703 190.884598,109.271652 M212.530853,101.043106 C217.917709,94.325432 217.756485,88.060112 212.066422,82.996346 C206.866806,78.369026 199.338989,78.521461 194.518005,83.351662 C189.823929,88.054695 189.561584,95.372795 193.906693,100.403786 C198.770004,106.034767 205.726959,106.479156 212.530853,101.043106 z"/>
    
    <path fill="#FFFFFF" opacity="1.000000" stroke="none" 
        d="M77.610336,74.117722 C77.609871,73.470284 77.610245,73.303749 77.609642,73.137207 C77.570770,62.405598 77.570763,62.406605 66.866997,62.374680 C65.368263,62.370209 63.869362,62.361759 62.370907,62.334763 C59.925198,62.290707 58.063042,61.356167 57.861629,58.690807 C57.644356,55.815628 59.504623,54.408455 62.047710,54.026882 C64.008034,53.732746 66.034302,53.837032 68.031311,53.835342 C77.857056,53.827015 87.682884,53.828472 97.508537,53.864422 C98.997070,53.869869 100.540062,53.864235 101.960129,54.236526 C104.109024,54.799892 105.390419,56.344536 105.208252,58.655636 C105.022507,61.012230 103.487862,62.225479 101.215332,62.309361 C97.888573,62.432156 94.546936,62.554207 91.227867,62.375443 C87.580917,62.179016 86.190643,63.586838 86.235870,67.297485 C86.381996,79.286476 86.279793,91.278519 86.270065,103.269379 C86.268845,104.768097 86.310448,106.270416 86.223618,107.764755 C86.047600,110.793953 84.654045,113.137848 81.426765,112.986328 C78.340027,112.841415 77.595177,110.398895 77.608482,107.573296 C77.660248,96.581978 77.617996,85.590218 77.610336,74.117722 z"/>
    
    <path fill="#FFFFFF" opacity="1.000000" stroke="none" 
        d="M293.964447,73.011246 C293.968689,81.508408 293.912781,89.508675 294.001556,97.507332 C294.042145,101.163979 294.507874,104.508507 299.439728,104.910095 C301.789490,105.101425 302.614349,107.263611 302.146301,109.479866 C301.569489,112.211105 299.387146,113.093033 296.896088,113.203636 C290.903625,113.469711 285.846130,108.355667 285.708374,101.520798 C285.523712,92.357994 285.648651,83.188927 285.643433,74.022545 C285.640594,69.022675 285.666718,64.022659 285.633484,59.023010 C285.617432,56.603916 286.281799,54.543987 288.982422,54.309307 C291.816956,54.062988 293.297577,55.799309 293.437103,58.540527 C293.674011,63.195122 293.794159,67.855659 293.964447,73.011246 z"/>
    
    <path fill="#FFFFFF" opacity="1.000000" stroke="none" 
        d="M109.232162,76.181938 C113.637840,72.618385 118.189079,70.452797 123.655258,70.640282 C125.989822,70.720367 128.064606,71.022240 128.299530,73.936905 C128.505661,76.494431 127.299263,77.749672 124.785149,78.498260 C112.237297,82.234467 110.292496,84.947350 110.273743,97.876801 C110.268433,101.534256 110.360176,105.203995 110.090240,108.844582 C109.914986,111.208260 108.401382,112.909767 105.893265,113.020233 C103.801888,113.112343 102.066048,111.651443 102.055260,109.788063 C102.003822,100.904419 99.944977,91.833275 104.028984,83.258850 C105.254349,80.686188 106.823196,78.346931 109.232162,76.181938 z"/>
</svg>